<?xml version="1.0" encoding="UTF-8" standalone="no" ?>
<!DOCTYPE svg PUBLIC "-//W3C//DTD SVG 1.1//EN" "http://www.w3.org/Graphics/SVG/1.1/DTD/svg11.dtd">
<svg xmlns="http://www.w3.org/2000/svg" xmlns:xlink="http://www.w3.org/1999/xlink" version="1.1" width="1080" height="1080" viewBox="0 0 1080 1080" xml:space="preserve">
<desc>Created with Fabric.js 5.2.4</desc>
<defs>
</defs>
<rect x="0" y="0" width="100%" height="100%" fill="transparent"></rect>
<g transform="matrix(1 0 0 1 540 540)" id="3c4a40c0-176c-43b6-bbfd-d98eac3f0868"  >
<rect style="stroke: none; stroke-width: 1; stroke-dasharray: none; stroke-linecap: butt; stroke-dashoffset: 0; stroke-linejoin: miter; stroke-miterlimit: 4; fill: rgb(255,255,255); fill-rule: nonzero; opacity: 1; visibility: hidden;" vector-effect="non-scaling-stroke"  x="-540" y="-540" rx="0" ry="0" width="1080" height="1080" />
</g>
<g transform="matrix(1 0 0 1 540 540)" id="95d490b2-fc29-4668-94dd-55b638ef1a28"  >
</g>
<g transform="matrix(0.42 0 0 0.42 540 555.66)"  >
<g style="" vector-effect="non-scaling-stroke"   >
		<g transform="matrix(10.37 0 0 10.37 -661.12 -2.62)"  >
<path style="stroke: none; stroke-width: 1; stroke-dasharray: none; stroke-linecap: butt; stroke-dashoffset: 0; stroke-linejoin: miter; stroke-miterlimit: 4; fill: rgb(255,255,255); fill-rule: nonzero; opacity: 1;" vector-effect="non-scaling-stroke"  transform=" translate(-56.23, -20.25)" d="M 61.514 11.157 C 60.46160956404877 11.153067999456917 59.451316981508164 11.57000271456099 58.708000000000006 12.315000000000001 L 55.690000000000005 15.325 C 54.87440694336458 16.139900173363095 54.45544767600049 17.270396191228738 54.543000000000006 18.419999999999998 L 54.562000000000005 18.610999999999997 C 54.6647928598727 19.487907422857518 55.06253903985225 20.303851270794283 55.690000000000005 20.924999999999997 C 56.12500000000001 21.358999999999998 56.604000000000006 21.633999999999997 57.18600000000001 21.824999999999996 C 57.21600000000001 21.999999999999996 57.233000000000004 22.176999999999996 57.233000000000004 22.354999999999997 C 57.233000000000004 23.151999999999997 56.923 23.900999999999996 56.359 24.461999999999996 L 56.173 24.647999999999996 C 55.165 24.303999999999995 54.325 23.800999999999995 53.566 23.043999999999997 C 52.56207561976342 22.047545950527233 51.88926845279752 20.7661747503379 51.639 19.373999999999995 L 51.605000000000004 19.180999999999994 L 51.452000000000005 19.304999999999993 C 51.34931086660129 19.387987978891157 51.25116856404816 19.476449578131223 51.15800000000001 19.569999999999993 L 48.14000000000001 22.57999999999999 C 47.0057228210609 23.712661334009045 46.66684242293526 25.41774240712555 47.28179708388254 26.898058988536583 C 47.89675174482982 28.378375569947615 49.34403816171161 29.34144535851093 50.94700000000001 29.33699999999999 C 51.999041442559594 29.339158042755702 53.008679333793744 28.922493510307678 53.75300000000001 28.178999999999988 L 56.772000000000006 25.16899999999999 C 57.51474097076419 24.42666838783259 57.93204293278114 23.419604933839828 57.93204293278114 22.36949999999999 C 57.93204293278114 21.31939506616015 57.51474097076419 20.312331612167394 56.772000000000006 19.569999999999993 C 56.35901112682801 19.158597171522963 55.859590839066975 18.844324487022178 55.31 18.649999999999988 C 55.13427026646809 17.60461569484647 55.479087922359625 16.539188846826644 56.234 15.794999999999987 C 57.2376207272591 16.134603747770832 58.14929241854393 16.701318582893837 58.898 17.450999999999986 C 59.90061175004023 18.448285454292023 60.57289641921744 19.72932633481142 60.824000000000005 21.120999999999984 L 60.859 21.31399999999999 L 61.012 21.18999999999999 C 61.116 21.106999999999992 61.214 21.016999999999992 61.308 20.92299999999999 L 64.326 17.91299999999999 C 65.46072319276902 16.780472939687744 65.7997349704292 15.075075071915517 65.18443111363959 13.594664510494365 C 64.56912725684998 12.114253949073216 63.12117958841847 11.151571019818668 61.517999999999994 11.15699999999999 L 61.513999999999996 11.15699999999999 z" stroke-linecap="round" />
</g>
		<g transform="matrix(10.37 0 0 10.37 -827.85 0)"  >
<path style="stroke: none; stroke-width: 1; stroke-dasharray: none; stroke-linecap: butt; stroke-dashoffset: 0; stroke-linejoin: miter; stroke-miterlimit: 4; fill: rgb(255,255,255); fill-rule: nonzero; opacity: 1;" vector-effect="non-scaling-stroke"  transform=" translate(-40.15, -20.5)" d="M 59.897 0.149 L 20.406999999999996 0.149 C 9.153 0.149 0 9.279 0 20.5 C 0 31.722 9.154 40.851 20.406 40.851 L 59.896 40.851 C 71.149 40.851 80.303 31.720999999999997 80.303 20.500999999999998 C 80.303 9.277 71.149 0.148 59.897 0.148 z M 40.419 32.056 C 39.767999999999994 32.19 39.035 32.214 38.537 31.695999999999998 C 38.354 32.116 37.925 31.895 37.594 31.839999999999996 C 37.564 31.924999999999997 37.537 31.999999999999996 37.509 32.086 C 36.409 32.159 35.584 31.04 35.06 30.195999999999998 C 34.02 29.633999999999997 32.838 29.291999999999998 31.775000000000002 28.703999999999997 C 31.713 29.671999999999997 31.925 30.873999999999995 31.001 31.497999999999998 C 30.954 33.36 33.825 31.717999999999996 34.089 33.105999999999995 C 33.885 33.12799999999999 33.659 33.07299999999999 33.495 33.23 C 32.745999999999995 33.955999999999996 31.886999999999997 32.68 31.023999999999997 33.206999999999994 C 29.863999999999997 33.788999999999994 29.747999999999998 34.26599999999999 28.313999999999997 34.385999999999996 C 28.233999999999998 34.266 28.266999999999996 34.18599999999999 28.333999999999996 34.11299999999999 C 28.737999999999996 33.64499999999999 28.766999999999996 33.09299999999999 29.455999999999996 32.892999999999994 C 28.745999999999995 32.782 28.152999999999995 33.172999999999995 27.554999999999996 33.483 C 26.776999999999997 33.8 26.782999999999998 32.766 25.586999999999996 33.537 C 25.454999999999995 33.429 25.517999999999997 33.330999999999996 25.593999999999998 33.248 C 25.897999999999996 32.878 26.298 32.823 26.749 32.842999999999996 C 24.529999999999998 31.609999999999996 23.485999999999997 34.351 22.461 32.988 C 22.153 33.069 22.037 33.346 21.843 33.541 C 21.676 33.358 21.803 33.135999999999996 21.81 32.921 C 21.61 32.827 21.357 32.782 21.416 32.461999999999996 C 21.025 32.33 20.751 32.562 20.459 32.782 C 20.195999999999998 32.57899999999999 20.637 32.282 20.719 32.06999999999999 C 20.953000000000003 31.662999999999993 21.488 31.985999999999994 21.759 31.692999999999994 C 22.531 31.255999999999993 23.606 31.965999999999994 24.488 31.845999999999993 C 25.168 31.930999999999994 26.008 31.235999999999994 25.666999999999998 30.540999999999993 C 24.941 29.614999999999995 25.069 28.403999999999993 25.052999999999997 27.296999999999993 C 24.962999999999997 26.651999999999994 23.409999999999997 25.829999999999995 22.961 25.133999999999993 C 22.406 24.506999999999994 21.974 23.78099999999999 21.540999999999997 23.065999999999992 C 19.979999999999997 20.051999999999992 20.470999999999997 16.179999999999993 18.503999999999998 13.380999999999991 C 17.613999999999997 13.870999999999992 16.455999999999996 13.639999999999992 15.687999999999999 12.981999999999992 C 15.274 13.358999999999993 15.255999999999998 13.851999999999991 15.222999999999999 14.373999999999992 C 14.229 13.383999999999991 14.353 11.510999999999992 15.148 10.40799999999999 C 15.470917413971126 9.982198057642835 15.856652037399218 9.607927575120824 16.291999999999994 9.297999999999995 C 16.389999999999997 9.22799999999999 16.423 9.15799999999999 16.421 9.047999999999991 C 17.207 5.523999999999991 22.564999999999998 6.2029999999999905 24.259 8.69999999999999 C 25.488 10.236999999999991 25.859 12.26999999999999 27.253 13.69699999999999 C 29.128 15.743999999999991 31.265 17.54699999999999 32.995 19.72699999999999 C 34.632 21.71899999999999 35.800999999999995 24.05499999999999 36.821 26.40999999999999 C 37.236999999999995 27.19199999999999 37.241 28.149999999999988 37.858 28.81799999999999 C 38.162 29.22099999999999 39.647999999999996 30.31799999999999 39.324999999999996 30.70599999999999 C 39.510999999999996 31.108999999999988 40.897999999999996 31.66499999999999 40.416999999999994 32.05599999999999 L 40.419 32.05599999999999 z M 66.445 20.031999999999996 L 63.42699999999999 23.041999999999994 C 62.62399959808552 23.843932870796404 61.6369611685935 24.43718588163543 60.55199999999999 24.769999999999996 L 60.495999999999995 24.785999999999994 L 60.47599999999999 24.838999999999995 C 60.12883325182252 25.758383719263104 59.58831948671573 26.59251411008405 58.89099999999999 27.284999999999997 L 55.87199999999999 30.294999999999995 C 54.56508965387233 31.603794489444397 52.78957205634083 32.33639349815822 50.93999999999999 32.33 C 49.09042794365916 32.33639349815822 47.314910346127654 31.603794489444397 46.00799999999999 30.294999999999998 C 44.701801035722255 28.99124934649699 43.967779933968515 27.221513885287713 43.967779933968515 25.375999999999998 C 43.967779933968515 23.530486114712286 44.701801035722255 21.760750653503013 46.00799999999999 20.457 L 49.02599999999999 17.447000000000003 C 49.82677759319588 16.64579327212032 50.81294660267785 16.05464145556913 51.89699999999999 15.726000000000003 L 51.95199999999999 15.709000000000003 L 51.971999999999994 15.656000000000002 C 52.32148302642303 14.734250438145668 52.86354089618514 13.897640367456217 53.562 13.202000000000004 L 56.580999999999996 10.192000000000002 C 57.88791034612766 8.883205510555603 59.66342794365916 8.150606501841775 61.51299999999999 8.157 C 63.378 8.157000000000002 65.129 8.880000000000003 66.445 10.192000000000002 C 67.7562582398057 11.492751056095132 68.49110380589488 13.265025656663154 68.485 15.111999999999998 C 68.485 16.972 67.761 18.719 66.445 20.03 L 66.445 20.032 z" stroke-linecap="round" />
</g>
		<g transform="matrix(10.37 0 0 10.37 137.03 32.07)"  >
<path style="stroke: none; stroke-width: 1; stroke-dasharray: none; stroke-linecap: butt; stroke-dashoffset: 0; stroke-linejoin: miter; stroke-miterlimit: 4; fill: rgb(255,255,255); fill-rule: nonzero; opacity: 1;" vector-effect="non-scaling-stroke"  transform=" translate(-133.22, -23.59)" d="M 28.142 28.413 C 27.877 29.443 27.791999999999998 31.195 26.448 31.245 C 26.338 31.84 26.861 32.064 27.338 31.872 C 27.810000000000002 31.657 28.034000000000002 32.043 28.193 32.428 C 28.922 32.534 29.999000000000002 32.186 30.040000000000003 31.324999999999996 C 28.952 30.699999999999996 28.616000000000003 29.511999999999997 28.144000000000002 28.410999999999994 L 28.142000000000003 28.412999999999993 z M 99.209 10.816 L 95.62400000000001 10.816 L 95.62400000000001 32.562 L 111 32.562 L 111 29.098 L 99.209 29.098 L 99.209 10.816 z M 129.021 32.562 L 132.606 32.562 L 132.606 32.524 L 132.653 32.524 L 132.66 32.364000000000004 C 132.661 32.31700000000001 132.674 31.882000000000005 132.608 31.212000000000003 L 132.608 23.118000000000002 C 132.608 20.073 134.828 18.688000000000002 136.891 18.688000000000002 C 139.10999999999999 18.688000000000002 140.19 19.883000000000003 140.19 22.345000000000002 L 140.19 32.562000000000005 L 143.775 32.562000000000005 L 143.775 21.867 C 143.775 17.805 141.19400000000002 15.281 137.041 15.281 C 135.276 15.281 133.701 15.783000000000001 132.464 16.735 L 132.431 15.578999999999999 L 129.026 15.578999999999999 L 129.026 32.562 L 129.02100000000002 32.562 z M 158.365 16.827 C 157.119 15.815000000000001 155.517 15.281000000000002 153.71 15.281000000000002 C 148.876 15.281000000000002 145.87300000000002 18.615000000000002 145.87300000000002 23.981 C 145.87300000000002 29.347 148.87600000000003 32.711 153.71 32.711 C 155.41500000000002 32.711 156.937 32.245999999999995 158.136 31.363 C 158.033 33.995 156.384 35.559 153.68099999999998 35.559 C 151.408 35.559 150.12199999999999 34.835 149.85799999999998 33.409 L 149.825 33.231 L 146.34199999999998 34.294000000000004 L 146.373 34.437000000000005 C 146.96099999999998 37.272000000000006 149.614 38.965 153.47299999999998 38.965 C 156.09099999999998 38.965 158.14399999999998 38.252 159.577 36.845000000000006 C 161.023 35.42700000000001 161.755 33.383 161.755 30.772000000000006 L 161.755 15.579 L 158.439 15.579 L 158.367 16.827 L 158.36499999999998 16.827 z M 158.14100000000002 24.130000000000003 C 158.14100000000002 27.370000000000005 156.56300000000002 29.306000000000004 153.918 29.306000000000004 C 151.083 29.306000000000004 149.458 27.366000000000003 149.458 23.982000000000006 C 149.458 20.599000000000007 151.084 18.687000000000005 153.918 18.687000000000005 C 156.499 18.687000000000005 158.115 20.613000000000003 158.14100000000002 23.713000000000005 L 158.14100000000002 24.131000000000004 z M 179.418 25.666 C 178.675 28.07 176.767 29.395 174.047 29.395 C 170.158 29.395 167.74 26.442 167.74 21.688 C 167.74 16.935 170.179 13.982 174.107 13.982 C 176.825 13.982 178.391 15.046999999999999 179.188 17.435 L 179.56 18.552 L 182.945 16.962 L 182.62699999999998 16.068 C 181.338 12.436000000000002 178.361 10.518 174.01799999999997 10.518 C 171.06699999999998 10.518 168.56199999999998 11.583 166.77299999999997 13.598 C 165.00299999999996 15.594000000000001 164.06599999999997 18.39 164.06599999999997 21.69 C 164.06599999999997 28.476 167.98299999999998 32.862 174.04699999999997 32.862 C 178.31999999999996 32.862 181.62999999999997 30.626 182.89999999999998 26.880000000000003 L 183.224 25.923000000000002 L 179.74699999999999 24.601000000000003 L 179.416 25.668000000000003 L 179.418 25.666000000000004 z M 192.806 15.281 C 191.09400000000002 15.281 189.571 15.751000000000001 188.375 16.641000000000002 L 188.375 8.733 L 184.79 8.733 L 184.79 32.565 L 188.375 32.565 L 188.375 23.12 C 188.375 20.056 190.594 18.66 192.658 18.66 C 194.87699999999998 18.66 195.957 19.856 195.957 22.317 L 195.957 32.566 L 199.542 32.566 L 199.542 21.84 C 199.542 17.857 196.899 15.283999999999999 192.808 15.283999999999999 L 192.80599999999998 15.280999999999999 z M 220.496 8.22 C 219.16400000000002 8.22 218.197 9.187000000000001 218.197 10.518 C 218.197 11.850000000000001 219.16400000000002 12.817 220.496 12.817 C 221.827 12.817 222.794 11.85 222.794 10.518 C 222.794 9.187000000000001 221.827 8.22 220.496 8.22 z M 233.262 15.281 C 231.497 15.281 229.923 15.783000000000001 228.686 16.735 L 228.65200000000002 15.578999999999999 L 225.24800000000002 15.578999999999999 L 225.24800000000002 32.562 L 228.83300000000003 32.562 L 228.83300000000003 23.117999999999995 C 228.83300000000003 20.072999999999993 231.05200000000002 18.687999999999995 233.116 18.687999999999995 C 235.335 18.687999999999995 236.41500000000002 19.882999999999996 236.41500000000002 22.344999999999995 L 236.41500000000002 32.562 L 240 32.562 L 240 21.867 C 240 17.805 237.419 15.281 233.266 15.281 L 233.262 15.281 z M 222.237 15.58 L 218.67 15.58 L 218.67 23.997999999999998 C 217.67999999999998 23.166999999999998 216.51399999999998 22.537999999999997 215.19799999999998 22.127 L 215.19799999999998 21.270999999999997 C 215.19799999999998 17.520999999999997 212.736 15.280999999999997 208.611 15.280999999999997 C 205.26 15.280999999999997 202.754 16.854999999999997 201.733 19.595999999999997 L 201.458 20.335999999999995 L 204.332 22.453999999999994 L 204.825 21.168999999999993 C 205.475 19.474999999999994 206.679 18.685999999999993 208.611 18.685999999999993 C 210.54399999999998 18.685999999999993 211.613 19.615999999999993 211.613 21.447999999999993 L 211.613 21.543999999999993 C 211.49738722634905 21.53900410301699 211.3817086085706 21.535670425271213 211.266 21.533999999999992 C 207.428 21.472999999999992 204.628 22.36999999999999 202.944 24.197999999999993 C 201.22099999999998 26.067999999999994 201.37199999999999 28.167999999999992 201.39499999999998 28.39999999999999 L 201.41099999999997 28.56199999999999 L 201.42699999999996 28.56199999999999 C 201.69499999999996 31.17799999999999 203.97999999999996 32.85699999999999 207.30099999999996 32.85699999999999 C 209.12999999999997 32.85699999999999 210.81999999999996 32.34799999999999 212.09799999999996 31.41699999999999 L 212.11199999999997 32.56099999999999 L 215.19799999999998 32.56099999999999 L 215.19799999999998 27.247999999999994 L 215.13099999999997 27.199999999999996 C 214.69499999999996 26.879999999999995 213.93399999999997 26.467999999999996 212.78899999999996 26.322999999999997 C 212.45157186952036 26.278246177223625 212.11135791296635 26.257860075701235 211.77099999999996 26.261999999999997 L 211.61099999999996 26.261999999999997 L 211.61099999999996 26.749999999999996 C 211.61099999999996 27.872999999999998 210.31999999999996 29.455 207.44799999999995 29.455 C 205.32799999999995 29.455 205.01199999999994 28.563 205.01199999999994 28.031 L 205.01199999999994 27.977 C 205.02799999999993 27.738 205.12799999999996 27.154 205.65499999999994 26.611 C 206.32399999999996 25.92 207.82999999999996 25.111 211.20699999999994 25.162 C 213.65199999999993 25.201 215.52799999999993 25.884 216.78399999999993 27.195 C 218.32499999999993 28.803 218.61499999999992 31.005 218.66799999999992 31.868000000000002 L 218.66799999999992 32.562000000000005 L 222.23499999999993 32.562000000000005 L 222.23499999999993 15.58 L 222.23699999999994 15.58 z M 119.752 15.207 C 116.401 15.207 113.895 16.78 112.874 19.522000000000002 L 112.59899999999999 20.262 L 115.47299999999998 22.38 L 115.96599999999998 21.095 C 116.61599999999999 19.401 117.81999999999998 18.610999999999997 119.75199999999998 18.610999999999997 C 121.68499999999999 18.610999999999997 122.75399999999998 19.540999999999997 122.75399999999998 21.373999999999995 L 122.75399999999998 21.803999999999995 L 119.06199999999998 22.455999999999996 C 114.73399999999998 23.220999999999997 112.53899999999999 25.071999999999996 112.53899999999999 27.953999999999997 C 112.53899999999999 30.836 114.85499999999999 32.784 118.43999999999998 32.784 C 120.26999999999998 32.784 121.95899999999999 32.274 123.23699999999998 31.343999999999998 L 123.25199999999998 32.486999999999995 L 126.33699999999997 32.486999999999995 L 126.33699999999997 21.196999999999996 C 126.33699999999997 17.445999999999994 123.87499999999997 15.206999999999995 119.75099999999998 15.206999999999995 L 119.75199999999998 15.206999999999995 z M 122.75399999999999 25.164 L 122.75399999999999 26.677 C 122.75399999999999 27.801 121.46199999999999 29.381999999999998 118.58999999999999 29.381999999999998 C 116.46999999999998 29.381999999999998 116.15499999999999 28.491 116.15499999999999 27.958999999999996 C 116.15499999999999 27.485999999999997 116.15499999999999 26.380999999999997 119.90999999999998 25.683999999999997 L 122.75399999999998 25.165 L 122.75399999999998 25.163999999999998 z" stroke-linecap="round" />
</g>
</g>
</g>
</svg>