<svg xmlns="http://www.w3.org/2000/svg" xmlns:xlink="http://www.w3.org/1999/xlink" width="500" zoomAndPan="magnify" viewBox="0 0 375 374.999991" height="500" preserveAspectRatio="xMidYMid meet" version="1.0"><defs><g/><clipPath id="d565a77751"><path d="M 145.015625 158.441406 L 365.757812 158.441406 L 365.757812 202.214844 L 145.015625 202.214844 Z M 145.015625 158.441406 " clip-rule="nonzero"/></clipPath><clipPath id="f403916a9e"><path d="M 176.992188 158.441406 L 359.695312 158.441406 C 361.847656 158.441406 363.832031 159.59375 364.894531 161.464844 C 365.960938 163.332031 365.941406 165.625 364.84375 167.476562 L 349.625 193.179688 C 346.308594 198.78125 340.28125 202.214844 333.773438 202.214844 L 151.070312 202.214844 C 148.921875 202.214844 146.933594 201.0625 145.871094 199.191406 C 144.804688 197.324219 144.824219 195.03125 145.921875 193.179688 L 161.140625 167.476562 C 164.457031 161.875 170.484375 158.441406 176.992188 158.441406 Z M 176.992188 158.441406 " clip-rule="nonzero"/></clipPath></defs><g clip-path="url(#d565a77751)"><g clip-path="url(#f403916a9e)"><path fill="#ffffff" d="M 140.570312 158.441406 L 370.203125 158.441406 L 370.203125 202.214844 L 140.570312 202.214844 Z M 140.570312 158.441406 " fill-opacity="1" fill-rule="nonzero"/></g></g><g fill="#ffffff" fill-opacity="1"><g transform="translate(37.500002, 194.508196)"><g><path d="M 16.765625 0 L 9.984375 0 L -0.03125 -25.796875 L 6.96875 -25.796875 L 13.5625 -6.8125 L 20.15625 -25.796875 L 26.90625 -25.796875 Z M 16.765625 0 "/></g></g></g><g fill="#ffffff" fill-opacity="1"><g transform="translate(62.266326, 194.508196)"><g><path d="M 11.46875 -20.15625 C 14.1875 -20.15625 16.300781 -19.519531 17.8125 -18.25 C 19.332031 -16.988281 20.101562 -15.226562 20.125 -12.96875 L 20.125 0 L 13.890625 0 L 13.890625 -2.28125 C 12.585938 -0.5625 10.5625 0.296875 7.8125 0.296875 C 5.726562 0.296875 4.070312 -0.28125 2.84375 -1.4375 C 1.613281 -2.59375 1 -4.09375 1 -5.9375 C 1 -7.820312 1.65625 -9.285156 2.96875 -10.328125 C 4.28125 -11.378906 6.164062 -11.914062 8.625 -11.9375 L 13.859375 -11.9375 L 13.859375 -12.234375 C 13.859375 -13.222656 13.53125 -13.992188 12.875 -14.546875 C 12.226562 -15.097656 11.265625 -15.375 9.984375 -15.375 C 8.191406 -15.375 6.210938 -14.820312 4.046875 -13.71875 L 2.25 -17.90625 C 5.46875 -19.40625 8.539062 -20.15625 11.46875 -20.15625 Z M 9.765625 -4.015625 C 10.773438 -4.015625 11.660156 -4.265625 12.421875 -4.765625 C 13.179688 -5.273438 13.660156 -5.9375 13.859375 -6.75 L 13.859375 -8.515625 L 9.84375 -8.515625 C 7.925781 -8.515625 6.96875 -7.800781 6.96875 -6.375 C 6.96875 -5.632812 7.210938 -5.054688 7.703125 -4.640625 C 8.191406 -4.222656 8.878906 -4.015625 9.765625 -4.015625 Z M 9.765625 -4.015625 "/></g></g></g><g fill="#ffffff" fill-opacity="1"><g transform="translate(82.278293, 194.508196)"><g><path d="M 15.546875 -20.15625 C 17.734375 -20.15625 19.488281 -19.460938 20.8125 -18.078125 C 22.144531 -16.691406 22.8125 -14.84375 22.8125 -12.53125 L 22.8125 0 L 16.46875 0 L 16.46875 -10.765625 C 16.46875 -11.921875 16.15625 -12.832031 15.53125 -13.5 C 14.90625 -14.175781 14.050781 -14.515625 12.96875 -14.515625 C 11.84375 -14.515625 10.914062 -14.144531 10.1875 -13.40625 C 9.46875 -12.675781 9.046875 -11.707031 8.921875 -10.5 L 8.921875 0 L 2.546875 0 L 2.546875 -19.859375 L 8.921875 -19.859375 L 8.921875 -16.625 C 10.316406 -18.9375 12.523438 -20.113281 15.546875 -20.15625 Z M 15.546875 -20.15625 "/></g></g></g><g fill="#ffffff" fill-opacity="1"><g transform="translate(104.980709, 194.508196)"><g><path d="M 9.65625 -20.15625 C 12.582031 -20.15625 15.3125 -19.40625 17.84375 -17.90625 L 15.671875 -13.78125 C 13.210938 -15.113281 11.125 -15.78125 9.40625 -15.78125 C 8.101562 -15.78125 7.453125 -15.320312 7.453125 -14.40625 C 7.453125 -13.914062 7.804688 -13.503906 8.515625 -13.171875 C 9.222656 -12.835938 10.09375 -12.535156 11.125 -12.265625 C 12.15625 -12.003906 13.179688 -11.671875 14.203125 -11.265625 C 15.222656 -10.859375 16.085938 -10.210938 16.796875 -9.328125 C 17.515625 -8.441406 17.875 -7.359375 17.875 -6.078125 C 17.875 -4.085938 17.097656 -2.53125 15.546875 -1.40625 C 14.003906 -0.289062 11.992188 0.265625 9.515625 0.265625 C 5.992188 0.265625 3.019531 -0.671875 0.59375 -2.546875 L 2.609375 -6.59375 C 4.953125 -4.945312 7.300781 -4.125 9.65625 -4.125 C 11.101562 -4.125 11.828125 -4.578125 11.828125 -5.484375 C 11.828125 -6.003906 11.476562 -6.4375 10.78125 -6.78125 C 10.082031 -7.125 9.226562 -7.429688 8.21875 -7.703125 C 7.207031 -7.972656 6.195312 -8.3125 5.1875 -8.71875 C 4.1875 -9.125 3.332031 -9.753906 2.625 -10.609375 C 1.925781 -11.472656 1.578125 -12.554688 1.578125 -13.859375 C 1.578125 -15.847656 2.328125 -17.394531 3.828125 -18.5 C 5.328125 -19.601562 7.269531 -20.15625 9.65625 -20.15625 Z M 9.65625 -20.15625 "/></g></g></g><g fill="#ffffff" fill-opacity="1"><g transform="translate(121.786237, 194.508196)"><g><path d="M 15.78125 -20.15625 C 17.96875 -20.15625 19.722656 -19.460938 21.046875 -18.078125 C 22.367188 -16.691406 23.03125 -14.84375 23.03125 -12.53125 L 23.03125 0 L 16.65625 0 L 16.65625 -10.765625 C 16.65625 -11.921875 16.34375 -12.832031 15.71875 -13.5 C 15.09375 -14.175781 14.238281 -14.515625 13.15625 -14.515625 C 11.925781 -14.515625 10.941406 -14.070312 10.203125 -13.1875 C 9.472656 -12.3125 9.109375 -11.179688 9.109375 -9.796875 L 9.109375 0 L 2.734375 0 L 2.734375 -27.34375 L 9.109375 -27.34375 L 9.109375 -16.59375 C 10.503906 -18.925781 12.726562 -20.113281 15.78125 -20.15625 Z M 15.78125 -20.15625 "/></g></g></g><g fill="#000000" fill-opacity="1"><g transform="translate(160.305565, 194.508196)"><g><path d="M 2.578125 -25.796875 L 14.78125 -25.796875 C 17.675781 -25.796875 19.976562 -25.210938 21.6875 -24.046875 C 23.394531 -22.878906 24.25 -21.3125 24.25 -19.34375 C 24.25 -18 23.851562 -16.816406 23.0625 -15.796875 C 22.28125 -14.773438 21.203125 -14.066406 19.828125 -13.671875 C 21.453125 -13.359375 22.742188 -12.609375 23.703125 -11.421875 C 24.660156 -10.242188 25.140625 -8.820312 25.140625 -7.15625 C 25.140625 -4.96875 24.25 -3.226562 22.46875 -1.9375 C 20.6875 -0.644531 18.269531 0 15.21875 0 L 2.578125 0 Z M 9.109375 -20.78125 L 9.109375 -15.484375 L 14.40625 -15.484375 C 15.363281 -15.484375 16.125 -15.722656 16.6875 -16.203125 C 17.257812 -16.679688 17.546875 -17.335938 17.546875 -18.171875 C 17.546875 -18.984375 17.257812 -19.617188 16.6875 -20.078125 C 16.125 -20.546875 15.363281 -20.78125 14.40625 -20.78125 Z M 9.109375 -10.765625 L 9.109375 -5.046875 L 14.40625 -5.046875 C 15.632812 -5.046875 16.597656 -5.300781 17.296875 -5.8125 C 18.003906 -6.332031 18.359375 -7.050781 18.359375 -7.96875 C 18.359375 -8.820312 18.003906 -9.5 17.296875 -10 C 16.597656 -10.507812 15.632812 -10.765625 14.40625 -10.765625 Z M 9.109375 -10.765625 "/></g></g></g><g fill="#000000" fill-opacity="1"><g transform="translate(184.555909, 194.508196)"><g><path d="M 15.78125 -20.15625 C 17.96875 -20.15625 19.722656 -19.460938 21.046875 -18.078125 C 22.367188 -16.691406 23.03125 -14.84375 23.03125 -12.53125 L 23.03125 0 L 16.65625 0 L 16.65625 -10.765625 C 16.65625 -11.921875 16.34375 -12.832031 15.71875 -13.5 C 15.09375 -14.175781 14.238281 -14.515625 13.15625 -14.515625 C 11.925781 -14.515625 10.941406 -14.070312 10.203125 -13.1875 C 9.472656 -12.3125 9.109375 -11.179688 9.109375 -9.796875 L 9.109375 0 L 2.734375 0 L 2.734375 -27.34375 L 9.109375 -27.34375 L 9.109375 -16.59375 C 10.503906 -18.925781 12.726562 -20.113281 15.78125 -20.15625 Z M 15.78125 -20.15625 "/></g></g></g><g fill="#000000" fill-opacity="1"><g transform="translate(207.442598, 194.508196)"><g><path d="M 11.46875 -20.15625 C 14.1875 -20.15625 16.300781 -19.519531 17.8125 -18.25 C 19.332031 -16.988281 20.101562 -15.226562 20.125 -12.96875 L 20.125 0 L 13.890625 0 L 13.890625 -2.28125 C 12.585938 -0.5625 10.5625 0.296875 7.8125 0.296875 C 5.726562 0.296875 4.070312 -0.28125 2.84375 -1.4375 C 1.613281 -2.59375 1 -4.09375 1 -5.9375 C 1 -7.820312 1.65625 -9.285156 2.96875 -10.328125 C 4.28125 -11.378906 6.164062 -11.914062 8.625 -11.9375 L 13.859375 -11.9375 L 13.859375 -12.234375 C 13.859375 -13.222656 13.53125 -13.992188 12.875 -14.546875 C 12.226562 -15.097656 11.265625 -15.375 9.984375 -15.375 C 8.191406 -15.375 6.210938 -14.820312 4.046875 -13.71875 L 2.25 -17.90625 C 5.46875 -19.40625 8.539062 -20.15625 11.46875 -20.15625 Z M 9.765625 -4.015625 C 10.773438 -4.015625 11.660156 -4.265625 12.421875 -4.765625 C 13.179688 -5.273438 13.660156 -5.9375 13.859375 -6.75 L 13.859375 -8.515625 L 9.84375 -8.515625 C 7.925781 -8.515625 6.96875 -7.800781 6.96875 -6.375 C 6.96875 -5.632812 7.210938 -5.054688 7.703125 -4.640625 C 8.191406 -4.222656 8.878906 -4.015625 9.765625 -4.015625 Z M 9.765625 -4.015625 "/></g></g></g><g fill="#000000" fill-opacity="1"><g transform="translate(227.454565, 194.508196)"><g><path d="M 14.109375 -5.484375 L 15.375 -1.0625 C 13.820312 -0.15625 12.050781 0.296875 10.0625 0.296875 C 8.09375 0.296875 6.5 -0.25 5.28125 -1.34375 C 4.070312 -2.4375 3.46875 -3.992188 3.46875 -6.015625 L 3.46875 -14.78125 L 0.703125 -14.78125 L 0.703125 -18.953125 L 3.46875 -18.953125 L 3.46875 -24.46875 L 9.796875 -24.46875 L 9.796875 -18.984375 L 15 -18.984375 L 15 -14.78125 L 9.796875 -14.78125 L 9.796875 -7 C 9.796875 -6.238281 9.945312 -5.679688 10.25 -5.328125 C 10.5625 -4.972656 11.023438 -4.804688 11.640625 -4.828125 C 12.234375 -4.828125 13.054688 -5.046875 14.109375 -5.484375 Z M 14.109375 -5.484375 "/></g></g></g><g fill="#000000" fill-opacity="1"><g transform="translate(241.385371, 194.508196)"><g><path d="M 15.546875 -20.15625 C 17.734375 -20.15625 19.488281 -19.460938 20.8125 -18.078125 C 22.144531 -16.691406 22.8125 -14.84375 22.8125 -12.53125 L 22.8125 0 L 16.46875 0 L 16.46875 -10.765625 C 16.46875 -11.921875 16.15625 -12.832031 15.53125 -13.5 C 14.90625 -14.175781 14.050781 -14.515625 12.96875 -14.515625 C 11.84375 -14.515625 10.914062 -14.144531 10.1875 -13.40625 C 9.46875 -12.675781 9.046875 -11.707031 8.921875 -10.5 L 8.921875 0 L 2.546875 0 L 2.546875 -19.859375 L 8.921875 -19.859375 L 8.921875 -16.625 C 10.316406 -18.9375 12.523438 -20.113281 15.546875 -20.15625 Z M 15.546875 -20.15625 "/></g></g></g><g fill="#000000" fill-opacity="1"><g transform="translate(264.087792, 194.508196)"><g><path d="M 11.46875 -20.15625 C 14.1875 -20.15625 16.300781 -19.519531 17.8125 -18.25 C 19.332031 -16.988281 20.101562 -15.226562 20.125 -12.96875 L 20.125 0 L 13.890625 0 L 13.890625 -2.28125 C 12.585938 -0.5625 10.5625 0.296875 7.8125 0.296875 C 5.726562 0.296875 4.070312 -0.28125 2.84375 -1.4375 C 1.613281 -2.59375 1 -4.09375 1 -5.9375 C 1 -7.820312 1.65625 -9.285156 2.96875 -10.328125 C 4.28125 -11.378906 6.164062 -11.914062 8.625 -11.9375 L 13.859375 -11.9375 L 13.859375 -12.234375 C 13.859375 -13.222656 13.53125 -13.992188 12.875 -14.546875 C 12.226562 -15.097656 11.265625 -15.375 9.984375 -15.375 C 8.191406 -15.375 6.210938 -14.820312 4.046875 -13.71875 L 2.25 -17.90625 C 5.46875 -19.40625 8.539062 -20.15625 11.46875 -20.15625 Z M 9.765625 -4.015625 C 10.773438 -4.015625 11.660156 -4.265625 12.421875 -4.765625 C 13.179688 -5.273438 13.660156 -5.9375 13.859375 -6.75 L 13.859375 -8.515625 L 9.84375 -8.515625 C 7.925781 -8.515625 6.96875 -7.800781 6.96875 -6.375 C 6.96875 -5.632812 7.210938 -5.054688 7.703125 -4.640625 C 8.191406 -4.222656 8.878906 -4.015625 9.765625 -4.015625 Z M 9.765625 -4.015625 "/></g></g></g><g fill="#000000" fill-opacity="1"><g transform="translate(284.099754, 194.508196)"><g><path d="M 21.53125 -19.859375 L 21.53125 -1.8125 C 21.53125 0.988281 20.539062 3.222656 18.5625 4.890625 C 16.582031 6.566406 13.984375 7.40625 10.765625 7.40625 C 7.472656 7.40625 4.523438 6.535156 1.921875 4.796875 L 4.125 0.484375 C 6.039062 1.804688 8.09375 2.46875 10.28125 2.46875 C 11.800781 2.46875 13 2.097656 13.875 1.359375 C 14.75 0.628906 15.1875 -0.363281 15.1875 -1.625 L 15.1875 -3.71875 C 13.832031 -1.945312 11.925781 -1.0625 9.46875 -1.0625 C 6.9375 -1.0625 4.878906 -1.945312 3.296875 -3.71875 C 1.710938 -5.488281 0.921875 -7.8125 0.921875 -10.6875 C 0.921875 -13.488281 1.691406 -15.753906 3.234375 -17.484375 C 4.785156 -19.222656 6.816406 -20.09375 9.328125 -20.09375 C 11.859375 -20.113281 13.8125 -19.226562 15.1875 -17.4375 L 15.1875 -19.859375 Z M 11.0625 -5.671875 C 12.289062 -5.671875 13.285156 -6.117188 14.046875 -7.015625 C 14.804688 -7.910156 15.1875 -9.070312 15.1875 -10.5 C 15.1875 -11.945312 14.804688 -13.117188 14.046875 -14.015625 C 13.285156 -14.921875 12.289062 -15.375 11.0625 -15.375 C 9.800781 -15.375 8.785156 -14.921875 8.015625 -14.015625 C 7.242188 -13.117188 6.859375 -11.945312 6.859375 -10.5 C 6.859375 -9.070312 7.242188 -7.910156 8.015625 -7.015625 C 8.785156 -6.117188 9.800781 -5.671875 11.0625 -5.671875 Z M 11.0625 -5.671875 "/></g></g></g><g fill="#000000" fill-opacity="1"><g transform="translate(305.843916, 194.508196)"><g><path d="M 11.46875 -20.15625 C 14.1875 -20.15625 16.300781 -19.519531 17.8125 -18.25 C 19.332031 -16.988281 20.101562 -15.226562 20.125 -12.96875 L 20.125 0 L 13.890625 0 L 13.890625 -2.28125 C 12.585938 -0.5625 10.5625 0.296875 7.8125 0.296875 C 5.726562 0.296875 4.070312 -0.28125 2.84375 -1.4375 C 1.613281 -2.59375 1 -4.09375 1 -5.9375 C 1 -7.820312 1.65625 -9.285156 2.96875 -10.328125 C 4.28125 -11.378906 6.164062 -11.914062 8.625 -11.9375 L 13.859375 -11.9375 L 13.859375 -12.234375 C 13.859375 -13.222656 13.53125 -13.992188 12.875 -14.546875 C 12.226562 -15.097656 11.265625 -15.375 9.984375 -15.375 C 8.191406 -15.375 6.210938 -14.820312 4.046875 -13.71875 L 2.25 -17.90625 C 5.46875 -19.40625 8.539062 -20.15625 11.46875 -20.15625 Z M 9.765625 -4.015625 C 10.773438 -4.015625 11.660156 -4.265625 12.421875 -4.765625 C 13.179688 -5.273438 13.660156 -5.9375 13.859375 -6.75 L 13.859375 -8.515625 L 9.84375 -8.515625 C 7.925781 -8.515625 6.96875 -7.800781 6.96875 -6.375 C 6.96875 -5.632812 7.210938 -5.054688 7.703125 -4.640625 C 8.191406 -4.222656 8.878906 -4.015625 9.765625 -4.015625 Z M 9.765625 -4.015625 "/></g></g></g><g fill="#000000" fill-opacity="1"><g transform="translate(325.855877, 194.508196)"><g><path d="M 8.921875 -19.859375 L 8.921875 -16.515625 C 10.316406 -18.898438 12.46875 -20.113281 15.375 -20.15625 L 15.375 -14.40625 C 13.550781 -14.582031 12.0625 -14.28125 10.90625 -13.5 C 9.75 -12.726562 9.085938 -11.628906 8.921875 -10.203125 L 8.921875 0 L 2.546875 0 L 2.546875 -19.859375 Z M 8.921875 -19.859375 "/></g></g></g></svg>